<svg width="575" height="320" viewBox="0 0 575 320" fill="none" xmlns="http://www.w3.org/2000/svg">
<path d="M229.709 82.5518L259.944 103.848C266.593 101.929 273.62 100.901 280.887 100.901C289.504 100.901 297.783 102.347 305.495 105.009L333.176 85.5127L334.055 84.8936L334.318 85.9365L348.512 142.123L348.923 143.752C353.648 153.608 356.296 164.65 356.296 176.311C356.296 217.958 322.534 251.72 280.887 251.72C239.239 251.72 205.478 217.958 205.478 176.311C205.478 164.69 208.107 153.683 212.802 143.853L212.341 144.207L212.896 142.111L228.569 82.9668L228.841 81.9404L229.709 82.5518Z" fill="black"/>
<path d="M229.709 82.5518L230.135 81.9473L230.135 81.9473L229.709 82.5518ZM259.944 103.848L259.519 104.452L259.809 104.656L260.149 104.558L259.944 103.848ZM280.887 100.901V100.162V100.162V100.901ZM305.495 105.009L305.254 105.708L305.612 105.831L305.921 105.613L305.495 105.009ZM333.176 85.5127L333.602 86.1171L333.602 86.1171L333.176 85.5127ZM334.055 84.8936L334.771 84.7124L334.508 83.67L333.629 84.2892L334.055 84.8936ZM334.318 85.9365L335.035 85.7555L335.035 85.7553L334.318 85.9365ZM348.512 142.123L349.229 141.942L349.229 141.942L348.512 142.123ZM348.923 143.752L348.206 143.933L348.224 144.005L348.256 144.072L348.923 143.752ZM356.296 176.311H357.035V176.311H356.296ZM280.887 251.72V252.459V252.459V251.72ZM205.478 176.311H204.738V176.311H205.478ZM212.802 143.853L213.469 144.171L212.351 143.266L212.802 143.853ZM212.341 144.207L211.626 144.018L211.069 146.117L212.792 144.793L212.341 144.207ZM212.896 142.111L213.611 142.301L213.611 142.301L212.896 142.111ZM228.569 82.9668L229.284 83.1562L229.284 83.1558L228.569 82.9668ZM228.841 81.9404L229.266 81.3359L228.398 80.7242L228.126 81.7514L228.841 81.9404ZM229.709 82.5518L229.283 83.1562L259.519 104.452L259.944 103.848L260.37 103.243L230.135 81.9473L229.709 82.5518ZM259.944 103.848L260.149 104.558C266.732 102.659 273.69 101.641 280.887 101.641V100.901V100.162C273.55 100.162 266.454 101.2 259.739 103.137L259.944 103.848ZM280.887 100.901V101.641C289.42 101.641 297.618 103.073 305.254 105.708L305.495 105.009L305.736 104.31C297.947 101.622 289.587 100.162 280.887 100.162V100.901ZM305.495 105.009L305.921 105.613L333.602 86.1171L333.176 85.5127L332.75 84.9083L305.069 104.404L305.495 105.009ZM333.176 85.5127L333.602 86.1171L334.48 85.498L334.055 84.8936L333.629 84.2892L332.75 84.9083L333.176 85.5127ZM334.055 84.8936L333.338 85.0748L333.602 86.1177L334.318 85.9365L335.035 85.7553L334.771 84.7124L334.055 84.8936ZM334.318 85.9365L333.602 86.1176L347.795 142.304L348.512 142.123L349.229 141.942L335.035 85.7555L334.318 85.9365ZM348.512 142.123L347.795 142.304L348.206 143.933L348.923 143.752L349.64 143.571L349.229 141.942L348.512 142.123ZM348.923 143.752L348.256 144.072C352.935 153.83 355.557 164.763 355.557 176.311H356.296H357.035C357.035 164.537 354.362 153.386 349.59 143.432L348.923 143.752ZM356.296 176.311H355.557C355.557 217.55 322.126 250.98 280.887 250.98V251.72V252.459C322.942 252.459 357.035 218.366 357.035 176.311H356.296ZM280.887 251.72V250.98C239.648 250.98 206.217 217.55 206.217 176.311H205.478H204.738C204.738 218.366 238.831 252.459 280.887 252.459V251.72ZM205.478 176.311H206.217C206.217 164.802 208.82 153.905 213.469 144.171L212.802 143.853L212.135 143.534C207.393 153.462 204.738 164.577 204.738 176.311H205.478ZM212.802 143.853L212.351 143.266L211.89 143.621L212.341 144.207L212.792 144.793L213.252 144.439L212.802 143.853ZM212.341 144.207L213.055 144.397L213.611 142.301L212.896 142.111L212.182 141.922L211.626 144.018L212.341 144.207ZM212.896 142.111L213.611 142.301L229.284 83.1562L228.569 82.9668L227.855 82.7774L212.182 141.922L212.896 142.111ZM228.569 82.9668L229.284 83.1558L229.556 82.1295L228.841 81.9404L228.126 81.7514L227.855 82.7777L228.569 82.9668ZM228.841 81.9404L228.415 82.5449L229.283 83.1562L229.709 82.5518L230.135 81.9473L229.266 81.3359L228.841 81.9404Z" fill="black"/>
<path d="M229.709 82.5518L259.944 103.848C266.593 101.929 273.62 100.901 280.887 100.901C289.504 100.901 297.783 102.347 305.495 105.009L333.176 85.5127L334.055 84.8936L334.318 85.9365L348.512 142.123L348.923 143.752C353.648 153.608 356.296 164.65 356.296 176.311C356.296 217.958 322.534 251.72 280.887 251.72C239.239 251.72 205.478 217.958 205.478 176.311C205.478 164.69 208.107 153.683 212.802 143.853L212.341 144.207L212.896 142.111L228.569 82.9668L228.841 81.9404L229.709 82.5518Z" fill="black"/>
<path d="M229.709 82.5518L230.135 81.9473L230.135 81.9473L229.709 82.5518ZM259.944 103.848L259.519 104.452L259.809 104.656L260.149 104.558L259.944 103.848ZM280.887 100.901V100.162V100.162V100.901ZM305.495 105.009L305.254 105.708L305.612 105.831L305.921 105.613L305.495 105.009ZM333.176 85.5127L333.602 86.1171L333.602 86.1171L333.176 85.5127ZM334.055 84.8936L334.771 84.7124L334.508 83.67L333.629 84.2892L334.055 84.8936ZM334.318 85.9365L335.035 85.7555L335.035 85.7553L334.318 85.9365ZM348.512 142.123L349.229 141.942L349.229 141.942L348.512 142.123ZM348.923 143.752L348.206 143.933L348.224 144.005L348.256 144.072L348.923 143.752ZM356.296 176.311H357.035V176.311H356.296ZM280.887 251.72V252.459V252.459V251.72ZM205.478 176.311H204.738V176.311H205.478ZM212.802 143.853L213.469 144.171L212.351 143.266L212.802 143.853ZM212.341 144.207L211.626 144.018L211.069 146.117L212.792 144.793L212.341 144.207ZM212.896 142.111L213.611 142.301L213.611 142.301L212.896 142.111ZM228.569 82.9668L229.284 83.1562L229.284 83.1558L228.569 82.9668ZM228.841 81.9404L229.266 81.3359L228.398 80.7242L228.126 81.7514L228.841 81.9404ZM229.709 82.5518L229.283 83.1562L259.519 104.452L259.944 103.848L260.37 103.243L230.135 81.9473L229.709 82.5518ZM259.944 103.848L260.149 104.558C266.732 102.659 273.69 101.641 280.887 101.641V100.901V100.162C273.55 100.162 266.454 101.2 259.739 103.137L259.944 103.848ZM280.887 100.901V101.641C289.42 101.641 297.618 103.073 305.254 105.708L305.495 105.009L305.736 104.31C297.947 101.622 289.587 100.162 280.887 100.162V100.901ZM305.495 105.009L305.921 105.613L333.602 86.1171L333.176 85.5127L332.75 84.9083L305.069 104.404L305.495 105.009ZM333.176 85.5127L333.602 86.1171L334.48 85.498L334.055 84.8936L333.629 84.2892L332.75 84.9083L333.176 85.5127ZM334.055 84.8936L333.338 85.0748L333.602 86.1177L334.318 85.9365L335.035 85.7553L334.771 84.7124L334.055 84.8936ZM334.318 85.9365L333.602 86.1176L347.795 142.304L348.512 142.123L349.229 141.942L335.035 85.7555L334.318 85.9365ZM348.512 142.123L347.795 142.304L348.206 143.933L348.923 143.752L349.64 143.571L349.229 141.942L348.512 142.123ZM348.923 143.752L348.256 144.072C352.935 153.83 355.557 164.763 355.557 176.311H356.296H357.035C357.035 164.537 354.362 153.386 349.59 143.432L348.923 143.752ZM356.296 176.311H355.557C355.557 217.55 322.126 250.98 280.887 250.98V251.72V252.459C322.942 252.459 357.035 218.366 357.035 176.311H356.296ZM280.887 251.72V250.98C239.648 250.98 206.217 217.55 206.217 176.311H205.478H204.738C204.738 218.366 238.831 252.459 280.887 252.459V251.72ZM205.478 176.311H206.217C206.217 164.802 208.82 153.905 213.469 144.171L212.802 143.853L212.135 143.534C207.393 153.462 204.738 164.577 204.738 176.311H205.478ZM212.802 143.853L212.351 143.266L211.89 143.621L212.341 144.207L212.792 144.793L213.252 144.439L212.802 143.853ZM212.341 144.207L213.055 144.397L213.611 142.301L212.896 142.111L212.182 141.922L211.626 144.018L212.341 144.207ZM212.896 142.111L213.611 142.301L229.284 83.1562L228.569 82.9668L227.855 82.7774L212.182 141.922L212.896 142.111ZM228.569 82.9668L229.284 83.1558L229.556 82.1295L228.841 81.9404L228.126 81.7514L227.855 82.7777L228.569 82.9668ZM228.841 81.9404L228.415 82.5449L229.283 83.1562L229.709 82.5518L230.135 81.9473L229.266 81.3359L228.841 81.9404Z" fill="black"/>
<path d="M278.317 127.516C273.66 132.518 267.019 135.648 259.646 135.648C252.272 135.648 245.631 132.518 240.975 127.516L278.317 127.516Z" fill="white" stroke="black" stroke-width="1.47862"/>
<path d="M271.107 128.656C270.646 131.839 269.988 133.831 269.258 133.831C268.529 133.831 267.871 131.839 267.41 128.656H271.107Z" fill="black" stroke="black" stroke-width="3"/>
<path d="M320.274 127.516C315.617 132.518 308.976 135.648 301.603 135.648C294.229 135.648 287.588 132.518 282.932 127.516L320.274 127.516Z" fill="white" stroke="black" stroke-width="1.47862"/>
<path d="M312.505 128.654C312.044 131.838 311.387 133.829 310.657 133.829C309.927 133.829 309.27 131.838 308.809 128.654H312.505Z" fill="black" stroke="black" stroke-width="3"/>
<path d="M279.543 285.489C202.185 285.489 198.912 289.783 198.912 255.236C198.912 220.689 198.912 148.23 198.912 148.23H279.543H362V255.236C362 287.887 356.901 285.489 279.543 285.489Z" fill="white" stroke="black" stroke-width="2" stroke-miterlimit="10"/>
<path d="M300.231 195.104L294.003 202.969L290.096 207.904L283.581 199.676C282.573 198.485 281.299 198.306 280.622 198.306C279.945 198.306 278.67 198.485 277.663 199.676L271.147 207.904L267.328 212.73L267.245 212.838L267.157 212.949L261.016 220.703L258.205 224.256C258.145 224.331 258.085 224.403 258.025 224.475C254.051 229.246 248.388 231.83 242.49 231.83C240.172 231.83 237.818 231.432 235.517 230.608C227.305 227.661 222 220.114 222 211.376V204.427C222 208.816 225.557 212.372 229.945 212.372C234.334 212.372 237.89 208.816 237.89 204.427V211.376C237.89 214.264 239.977 215.323 240.877 215.646C241.765 215.964 244.019 216.466 245.823 214.292L250.885 207.904L254.732 203.045L254.792 202.969L254.835 202.914L261.02 195.104L265.273 189.736C265.305 189.696 265.337 189.656 265.369 189.62C269.136 185.04 274.7 182.416 280.63 182.416C286.56 182.416 292.123 185.04 295.891 189.62C295.922 189.66 295.954 189.696 295.986 189.736L300.239 195.104H300.231Z" fill="#4285F4" stroke="#202124" stroke-width="1.13736" stroke-miterlimit="10"/>
<path d="M258.201 191.556L261.012 195.108L254.828 202.918L254.784 202.974L254.724 203.049L250.877 207.908L245.819 201.52C244.015 199.346 241.761 199.847 240.873 200.166C239.977 200.489 237.886 201.548 237.886 204.435C237.886 208.824 234.33 212.38 229.941 212.38C225.553 212.38 222 208.816 222 204.427C222 195.69 227.305 188.143 235.517 185.2C243.669 182.277 252.486 184.686 258.022 191.329C258.081 191.401 258.145 191.476 258.205 191.548L258.201 191.556Z" fill="#EA4335" stroke="#202124" stroke-width="1.13736" stroke-miterlimit="10"/>
<path d="M267.328 212.726L267.245 212.834L267.157 212.945C267.217 212.874 267.273 212.802 267.328 212.73V212.726Z" fill="#EA4335" stroke="#202124" stroke-width="1.13736" stroke-miterlimit="10"/>
<path d="M254.727 203.047C254.76 203.002 254.796 202.958 254.832 202.914L254.788 202.97L254.727 203.047Z" fill="#34A853" stroke="#202124" stroke-width="1.13736" stroke-miterlimit="10"/>
<path d="M339.249 204.427V211.377C339.249 206.988 335.692 203.432 331.304 203.432C326.915 203.432 323.359 206.988 323.359 211.377V204.427C323.359 201.54 321.272 200.481 320.372 200.158C319.484 199.84 317.23 199.338 315.426 201.512L310.368 207.9L306.521 212.759L306.461 212.834L306.418 212.89L300.233 220.7L295.979 226.068C295.948 226.108 295.916 226.148 295.884 226.184C292.117 230.759 286.553 233.388 280.623 233.388C274.693 233.388 269.13 230.763 265.362 226.184C265.331 226.144 265.299 226.108 265.267 226.068L261.014 220.696L267.155 212.942C267.214 212.87 267.27 212.799 267.326 212.727L271.145 207.9L277.66 216.128C278.668 217.319 279.942 217.498 280.619 217.498C281.296 217.498 282.571 217.319 283.574 216.128L290.09 207.9L293.933 203.046L293.992 202.97L294.048 202.898L300.221 195.105L303.032 191.552C303.092 191.477 303.156 191.401 303.216 191.329C308.751 184.687 317.568 182.281 325.72 185.2C333.928 188.143 339.237 195.69 339.237 204.427H339.249Z" fill="#34A853" stroke="#202124" stroke-width="1.13736" stroke-miterlimit="10"/>
<path d="M293.938 203.046C293.974 202.998 294.014 202.946 294.054 202.898L293.998 202.97L293.938 203.046Z" fill="#FBBC04" stroke="#202124" stroke-width="1.13736" stroke-miterlimit="10"/>
<path d="M339.247 211.377C339.247 220.114 333.942 227.661 325.73 230.604C323.429 231.428 321.075 231.827 318.757 231.827C312.863 231.827 307.2 229.242 303.226 224.471C303.162 224.399 303.102 224.324 303.042 224.248L300.231 220.696L306.416 212.886L306.459 212.83L306.519 212.755L310.366 207.896L315.424 214.284C317.228 216.458 319.486 215.957 320.37 215.638C321.266 215.315 323.357 214.256 323.357 211.369C323.357 206.98 326.913 203.424 331.302 203.424C335.69 203.424 339.247 206.98 339.247 211.369V211.377Z" fill="#FBBC04" stroke="#202124" stroke-width="1.13736" stroke-miterlimit="10"/>
<path d="M362.11 177.145H383.39C398.644 177.145 409.893 180.349 409.893 213.294C409.893 246.239 400.567 250.981 385.12 250.981H362.11" stroke="black" stroke-width="2" stroke-miterlimit="10"/>
<path d="M244.5 102.5C240.378 72.8477 289.361 38.4635 325.886 51.819C379.947 71.5865 364.609 118.438 464 92.5" stroke="black" stroke-width="2" stroke-dasharray="6.32 6.32"/>
<path d="M524.996 25L461.339 95.3847L450.285 68.1028L524.996 25Z" fill="#4285F4" stroke="#202124" stroke-width="1.6117" stroke-linejoin="round"/>
<path d="M463.936 72.9602L461.338 95.3857L487.3 66.7715L463.936 72.9602Z" fill="white" stroke="#202124" stroke-width="1.6117" stroke-linejoin="round"/>
<path d="M428 56.3644L524.993 25L492.258 86.7938L463.934 72.959L524.993 25L450.282 68.1028L428 56.3644Z" fill="white"/>
<path d="M524.993 25L428 56.3644L450.282 68.1028L524.993 25ZM524.993 25L492.258 86.7938L463.934 72.959L524.993 25Z" stroke="#202124" stroke-width="1.6117" stroke-linejoin="round"/>
<path d="M246 285.387C241.721 257.049 211.119 217.387 192.14 223.049C173.173 228.712 192.14 267.676 192.14 267.676C192.14 267.676 146.236 197.543 111.356 215.254C76.4748 232.965 122.365 269.796 122.365 269.796C122.365 269.796 70.9571 253.507 63 285.387H245.987" fill="#34A853"/>
<path d="M246 285.387C241.721 257.049 211.119 217.387 192.14 223.049C173.173 228.712 192.14 267.676 192.14 267.676C192.14 267.676 146.236 197.543 111.356 215.254C76.4748 232.965 122.365 269.796 122.365 269.796C122.365 269.796 70.9571 253.507 63 285.387H245.987" stroke="black" stroke-width="2" stroke-miterlimit="10"/>
</svg>
